# xmcd CD database file
#
# Track frame offsets:
#	151
#	19575
#	39750
#	63075
#	83850
#	107925
#	135000
#	160350
#	186151
#	204975
#	222601
#
# Disc length: 3240 seconds
#
# Revision: 5
# Processed by: cddbd v1.5.2PL0 Copyright (c) Steve Scherf et al.
# Submitted via: CDex 1.70beta2
#
DISCID=8b0ca60b
DTITLE=Игорь Крутой - ... без слов ...
DYEAR=2000
DGENRE=Instrumental
TTITLE0=ПЕСНЬ О ДРУГЕ
TTITLE1=ЭВРИКА-ДЭНС
TTITLE2=НЕЖНОСТЬ
TTITLE3=КОКТЕЙЛЬ "ДЖАЗ"
TTITLE4=КОГДА Я ЗАКРЫВАЮ ГЛАЗА
TTITLE5=НОЧНОЙ ЭКСПРЕСС
TTITLE6=РОЗОВЫЙ ДЫМ
TTITLE7=МЭДИСОН СКВЕР
TTITLE8=НАСЛАЖДЕНИЕ
TTITLE9=БЕЗ СЛОВ
TTITLE10=ПЕСНЬ О ДРУГЕ /ремикс/
EXTD=YEAR: 2000
EXTT0=
EXTT1=
EXTT2=
EXTT3=
EXTT4=
EXTT5=
EXTT6=
EXTT7=
EXTT8=
EXTT9=
EXTT10=
PLAYORDER=
